<svg width="48" height="38" viewBox="0 0 48 38" fill="none" xmlns="http://www.w3.org/2000/svg">
<path d="M4.53229 3.80003C1.86562 6.73336 0.265625 9.93336 0.265625 15.2667C0.265625 24.6 6.93229 32.8667 16.2656 37.1334L18.6656 33.6667C9.86563 28.8667 7.99896 22.7334 7.46563 18.7334C8.79896 19.5334 10.6656 19.8 12.5323 19.5334C17.3323 19 21.0656 15.2667 21.0656 10.2C21.0656 7.80003 19.999 5.40003 18.399 3.53336C16.5323 1.66669 14.399 0.866695 11.7323 0.866695C8.79896 0.866695 6.13229 2.20002 4.53229 3.80003ZM31.199 3.80003C28.5323 6.73336 26.9323 9.93336 26.9323 15.2667C26.9323 24.6 33.599 32.8667 42.9323 37.1334L45.3323 33.6667C36.5323 28.8667 34.6656 22.7334 34.1323 18.7334C35.4656 19.5334 37.3323 19.8 39.199 19.5334C43.999 19 47.7323 15.2667 47.7323 10.2C47.7323 7.80003 46.6656 5.40003 45.0656 3.53336C43.4656 1.66669 41.0656 0.866695 38.399 0.866695C35.4656 0.866695 32.799 2.20002 31.199 3.80003Z" fill="#0F73F6"/>
</svg>
